<svg xmlns="http://www.w3.org/2000/svg" viewBox="0 0 512 512" role="img" aria-labelledby="title description">
  <title id="title">R5 GitHub organization logo</title>
  <desc id="description">A white R with a superscript five over a three-by-three blueprint grid on a Prussian blue field.</desc>

  <rect width="512" height="512" fill="#003153"/>

  <g fill="none" stroke="#fff" stroke-width="10" opacity=".22">
    <path d="M170.667 0V512M341.333 0V512M0 170.667H512M0 341.333H512"/>
  </g>

  <!-- IBM Plex Serif SemiBold, converted to paths for portable rendering. -->
  <g fill="#fff" transform="translate(112 70) scale(3)">
    <path d="M4.312 92.635h6.828V36.65H4.312v-5.765h35.813c2.945 0 5.633.34 8.062 1.015 2.438.68 4.535 1.72 6.297 3.125 1.758 1.407 3.117 3.2 4.078 5.375.957 2.18 1.438 4.735 1.438 7.672 0 4.618-1.375 8.43-4.125 11.438-2.75 3-6.305 4.95-10.656 5.844L57.312 86.18c1.282 2.242 2.625 3.793 4.032 4.656 1.406.867 3.195 1.297 5.375 1.297h.578v5.765H59.14c-2.117 0-3.961-.175-5.531-.53-1.563-.352-2.938-.91-4.125-1.673-1.18-.77-2.215-1.726-3.11-2.875-.898-1.156-1.761-2.504-2.593-4.047L33.03 67.854h-8.453v24.28h6.812V97.9H4.312Zm20.266-30.954h11.234c3.383 0 5.958-.828 7.72-2.484 1.757-1.664 2.64-4.07 2.64-7.219v-5.375c0-3.133-.883-5.53-2.64-7.187-1.762-1.664-4.337-2.5-7.72-2.5H24.579Z"/>
    <path d="M81.75 67.29c-4.23 0-7.309-.72-9.234-2.157-1.918-1.438-2.875-3.18-2.875-5.235 0-1.343.414-2.43 1.25-3.265.832-.832 1.89-1.25 3.172-1.25 1.468 0 2.535.418 3.203 1.25.675.832 1.015 1.855 1.015 3.078 0 1.406-.543 2.399-1.625 2.969v.203c.77.312 2.082.469 3.938.469 2.039 0 3.625-.524 4.75-1.578 1.125-1.051 1.687-2.57 1.687-4.563v-.953c0-2.238-.547-3.899-1.64-4.984-1.086-1.094-2.559-1.641-4.422-1.641-1.274 0-2.293.289-3.063.86-.773.574-1.414 1.246-1.922 2.015l-5-1.25 1.36-19.875h21.968v7.407H75.797l-.672 11.218h.469c.582-1.406 1.61-2.726 3.078-3.968 1.469-1.25 3.582-1.875 6.344-1.875 3.644 0 6.457.976 8.437 2.922 1.988 1.949 2.985 4.684 2.985 8.203 0 3.843-1.399 6.808-4.188 8.89-2.781 2.075-6.281 3.11-10.5 3.11Z"/>
  </g>
</svg>
